<svg width="600" height="600" viewBox="0 0 600 600" fill="none" xmlns="http://www.w3.org/2000/svg">
<rect width="600" height="600" fill="white"/>
<path d="M199.658 1.13545L0 1.39922L0.26421 200.736C0.179663 90.6485 89.3875 1.28316 199.658 1.13545Z" fill="#E8F4F8"/>
<path d="M199.711 1.13545H199.658C89.3875 1.28316 0.126868 90.6485 0.264258 200.736V200.788L200.007 200.525L199.711 1.13545Z" fill="#E0F5F0"/>
<path d="M199.806 72.9021C183.021 72.9215 166.404 76.2416 150.904 82.6729C135.404 89.1042 121.325 98.5206 109.471 110.384C97.6169 122.248 88.2197 136.327 81.8161 151.817C75.4126 167.307 72.1282 183.905 72.1504 200.662L200.028 200.493L199.806 72.9021Z" fill="#A6E3D4"/>
<path d="M599.904 598.68L599.64 399.333L399.982 399.597C510.242 399.471 599.756 488.593 599.904 598.68Z" fill="#A6E3D4"/>
<path d="M599.904 598.744C599.756 488.657 510.242 399.534 399.982 399.682H399.929L400.193 599.092L599.904 598.744Z" fill="#CDE8F1"/>
<path d="M528.018 598.828C528 582.071 524.676 565.482 518.235 550.008C511.794 534.534 502.363 520.479 490.48 508.644C478.597 496.81 464.495 487.428 448.98 481.035C433.465 474.642 416.841 471.363 400.056 471.385V471.385L400.225 599.05L528.018 598.828Z" fill="#FEF1ED"/>
<path d="M599.407 199.998L599.143 0.58783L399.401 0.8516C509.714 0.72499 599.249 89.8793 599.407 199.998Z" fill="#A6E3D4"/>
<path d="M399.422 0.871689L399.686 200.282L599.429 200.018C489.095 200.134 399.57 110.99 399.422 0.871689Z" fill="white"/>
<path d="M599.407 199.997C599.26 89.8783 509.724 0.723962 399.432 0.871674C399.57 110.99 489.095 200.134 599.407 199.997Z" fill="#FEF1ED"/>
<path d="M0.264221 200.788L0.538994 400.199L200.282 399.935C89.9476 400.051 0.412179 310.907 0.264221 200.788Z" fill="#CDE8F1"/>
<path d="M200.239 399.914L199.975 200.504L0.232483 200.767C110.566 200.641 200.102 289.795 200.239 399.914Z" fill="#FEF1ED"/>
<path d="M0.264221 200.788C0.412179 310.907 89.9476 400.051 200.239 399.914C200.102 289.795 110.567 200.641 0.274784 200.788H0.264221Z" fill="white"/>
<path d="M399.95 399.639L200.208 399.914L200.482 599.324C200.366 489.174 289.658 399.787 399.95 399.639Z" fill="#E8F4F8"/>
<path d="M200.514 599.292L400.257 599.029L399.992 399.618C400.098 509.758 310.806 599.145 200.514 599.292Z" fill="#E0F5F0"/>
<path d="M399.95 399.639C289.658 399.787 200.366 489.174 200.514 599.292C310.806 599.145 400.098 509.758 399.95 399.639Z" fill="white"/>
<path d="M399.665 200.261L199.922 200.525L200.187 399.935C200.102 289.795 289.394 200.409 399.665 200.261Z" fill="#A6E3D4"/>
<path d="M200.239 399.914L399.982 399.639L399.718 200.229C399.834 310.38 310.542 399.766 200.239 399.914Z" fill="#CDE8F1"/>
<path d="M399.665 200.261C289.394 200.409 200.102 289.795 200.239 399.914C310.542 399.766 399.834 310.38 399.665 200.261Z" fill="#FEF1ED"/>
<path d="M399.665 200.208L399.401 0.871689L199.743 1.13546C310.034 0.987748 399.538 90.121 399.665 200.208Z" fill="#CDE8F1"/>
<path d="M399.665 200.261V200.208C399.517 90.121 310.013 0.987726 199.743 1.13544L200.007 200.546L399.665 200.261Z" fill="#FEF1ED"/>
<path d="M327.8 200.356C327.785 183.598 324.462 167.007 318.022 151.531C311.583 136.055 302.152 121.998 290.269 110.162C278.385 98.3259 264.283 88.9433 248.766 82.5502C233.25 76.157 216.624 72.8785 199.838 72.9021V72.9021L200.007 200.567L327.8 200.356Z" fill="#E8F4F8"/>
<path d="M0.507263 400.23L0.771473 599.556L200.43 599.293C90.1589 599.44 0.655221 510.317 0.507263 400.23Z" fill="#FEF1ED"/>
<path d="M0.507263 400.178V400.23C0.655221 510.317 90.1589 599.44 200.43 599.292L200.165 399.882L0.507263 400.178Z" fill="#A6E3D4"/>
<path d="M72.3935 400.083C72.4115 416.839 75.7359 433.428 82.1767 448.902C88.6176 464.376 98.0487 478.432 109.932 490.267C121.814 502.101 135.916 511.483 151.431 517.876C166.946 524.269 183.571 527.548 200.356 527.526V527.526L200.186 399.861L72.3935 400.083Z" fill="#E0F5F0"/>
<path d="M399.665 200.314L399.929 399.639L599.608 399.333C489.338 399.523 399.834 310.401 399.665 200.314Z" fill="white"/>
<path d="M399.665 200.261C399.813 310.348 489.317 399.471 599.587 399.323H599.64L599.376 199.913L399.665 200.261Z" fill="#E8F4F8"/>
<path d="M471.53 200.166C471.551 216.924 474.879 233.515 481.323 248.989C487.768 264.463 497.203 278.518 509.09 290.351C520.977 302.184 535.083 311.563 550.602 317.952C566.12 324.342 582.748 327.616 599.534 327.588V327.588L599.407 199.997L471.53 200.166Z" fill="#CDE8F1"/>
</svg>
