<svg width="600" height="601" viewBox="0 0 600 601" fill="none" xmlns="http://www.w3.org/2000/svg">
<path d="M199.658 1.13733L0 1.40154L0.26421 201.07C0.179663 90.7996 89.3875 1.28529 199.658 1.13733Z" fill="#FDE4E6"/>
<path d="M199.711 1.13733H199.658C89.3875 1.28529 0.126868 90.7996 0.264258 201.07V201.123L200.007 200.859L199.711 1.13733Z" fill="#E0F5F0"/>
<path d="M199.806 73.0236C183.021 73.043 166.404 76.3687 150.904 82.8107C135.404 89.2527 121.325 98.6848 109.471 110.568C97.6169 122.452 88.2197 136.554 81.8161 152.07C75.4126 167.586 72.1282 184.211 72.1504 200.996L200.028 200.827L199.806 73.0236Z" fill="#A6E3D4"/>
<path d="M599.904 599.678L599.64 399.999L399.982 400.263C510.242 400.136 599.756 489.408 599.904 599.678Z" fill="#A6E3D4"/>
<path d="M599.904 599.742C599.756 489.471 510.242 400.2 399.982 400.348H399.929L400.193 600.09L599.904 599.742Z" fill="#CDE8F1"/>
<path d="M528.018 599.826C528 583.042 524.676 566.425 518.235 550.925C511.794 535.425 502.363 521.346 490.48 509.492C478.597 497.638 464.496 488.24 448.98 481.837C433.465 475.433 416.841 472.148 400.056 472.171V472.171L400.225 600.048L528.018 599.826Z" fill="#E8E2CC"/>
<path d="M599.407 200.33L599.143 0.58783L399.401 0.852039C509.714 0.725219 599.249 90.0281 599.407 200.33Z" fill="#A6E3D4"/>
<path d="M399.422 0.873108L399.686 200.616L599.429 200.352C489.095 200.468 399.57 111.175 399.422 0.873108Z" fill="#FCD7CA"/>
<path d="M599.407 200.33C599.26 90.0281 509.724 0.725151 399.432 0.873108C399.57 111.175 489.095 200.468 599.407 200.33Z" fill="#E8E2CC"/>
<path d="M0.264221 201.123L0.538994 400.866L200.282 400.601C89.9476 400.718 0.412179 311.425 0.264221 201.123Z" fill="#CDE8F1"/>
<path d="M200.239 400.58L199.975 200.838L0.232483 201.102C110.566 200.975 200.102 290.278 200.239 400.58Z" fill="#E8E2CC"/>
<path d="M0.264221 201.123C0.412179 311.425 89.9476 400.718 200.239 400.58C200.102 290.278 110.567 200.975 0.274784 201.123H0.264221Z" fill="#FCD7CA"/>
<path d="M399.95 400.306L200.208 400.58L200.482 600.323C200.366 489.989 289.658 400.453 399.95 400.306Z" fill="#FDE4E6"/>
<path d="M200.514 600.291L400.257 600.027L399.992 400.284C400.098 510.608 310.806 600.143 200.514 600.291Z" fill="#E0F5F0"/>
<path d="M399.95 400.306C289.658 400.453 200.366 489.989 200.514 600.291C310.806 600.143 400.098 510.608 399.95 400.306Z" fill="#FCD7CA"/>
<path d="M399.665 200.595L199.922 200.859L200.187 400.601C200.102 290.278 289.394 200.743 399.665 200.595Z" fill="#A6E3D4"/>
<path d="M200.239 400.58L399.982 400.306L399.718 200.563C399.834 310.897 310.542 400.432 200.239 400.58Z" fill="#CDE8F1"/>
<path d="M399.665 200.595C289.394 200.743 200.102 290.278 200.239 400.58C310.542 400.432 399.834 310.897 399.665 200.595Z" fill="#E8E2CC"/>
<path d="M399.665 200.542L399.401 0.873108L199.743 1.13732C310.034 0.98936 399.538 90.2712 399.665 200.542Z" fill="#CDE8F1"/>
<path d="M399.665 200.595V200.542C399.517 90.2712 310.013 0.989372 199.743 1.13733L200.007 200.88L399.665 200.595Z" fill="#E8E2CC"/>
<path d="M327.8 200.69C327.785 183.904 324.462 167.285 318.022 151.784C311.583 136.282 302.152 122.201 290.269 110.346C278.385 98.4898 264.283 89.0916 248.766 82.6877C233.25 76.2839 216.624 73 199.838 73.0236V73.0236L200.007 200.901L327.8 200.69Z" fill="#FDE4E6"/>
<path d="M0.507263 400.897L0.771473 600.555L200.43 600.291C90.1589 600.439 0.655221 511.168 0.507263 400.897Z" fill="#E8E2CC"/>
<path d="M0.507263 400.845V400.897C0.655221 511.168 90.1589 600.439 200.43 600.291L200.165 400.549L0.507263 400.845Z" fill="#A6E3D4"/>
<path d="M72.3935 400.749C72.4115 417.534 75.7359 434.151 82.1767 449.651C88.6176 465.15 98.0487 479.229 109.932 491.084C121.814 502.938 135.916 512.335 151.431 518.739C166.946 525.143 183.571 528.427 200.356 528.405V528.405L200.186 400.527L72.3935 400.749Z" fill="#E0F5F0"/>
<path d="M399.665 200.647L399.929 400.305L599.608 399.999C489.338 400.189 399.834 310.918 399.665 200.647Z" fill="#FCD7CA"/>
<path d="M399.665 200.595C399.813 310.865 489.317 400.136 599.587 399.988H599.64L599.376 200.246L399.665 200.595Z" fill="#FDE4E6"/>
<path d="M471.53 200.5C471.551 217.286 474.879 233.904 481.323 249.404C487.768 264.904 497.203 278.982 509.09 290.835C520.977 302.688 535.083 312.082 550.602 318.482C566.12 324.882 582.748 328.162 599.534 328.134V328.134L599.408 200.33L471.53 200.5Z" fill="#CDE8F1"/>
</svg>
