<svg width="600" height="600" viewBox="0 0 600 600" fill="none" xmlns="http://www.w3.org/2000/svg">
<rect width="600" height="600" fill="white"/>
<path d="M0 0.843964L0.264243 200.205L199.937 199.941C89.663 200.089 0.147976 110.955 0 0.843964Z" fill="#F9F9F9"/>
<path d="M0 0.792293C0.147976 110.904 89.663 200.038 199.937 199.89L199.673 0.454681L0 0.792293Z" fill="white"/>
<path d="M71.8846 0.69736C71.9266 34.5362 85.4312 66.9725 109.427 90.8715C133.424 114.77 165.946 128.175 199.842 128.135V128.135L199.673 0.454681L71.8846 0.69736Z" fill="#E0F5F0"/>
<path d="M400.01 399.134L400.275 598.495L599.947 598.231C489.673 598.379 400.158 509.235 400.01 399.134Z" fill="white"/>
<path d="M400.01 399.081C400.158 509.182 489.673 598.326 599.947 598.179H600L599.736 398.743L400.01 399.081Z" fill="#F9F9F9"/>
<path d="M471.895 398.986C471.94 432.828 485.448 465.266 509.449 489.165C533.449 513.064 565.975 526.466 599.873 526.424V526.424L599.704 398.743L471.895 398.986Z" fill="#E0F5F0"/>
<path d="M0.507324 399.619L0.771567 599.054L200.539 598.791C90.1913 598.907 0.6553 509.741 0.507324 399.619Z" fill="#E0F5F0"/>
<path d="M200.497 598.759L200.233 399.324L0.465256 399.598C110.813 399.472 200.349 488.627 200.497 598.759Z" fill="white"/>
<path d="M0.507324 399.62C0.6553 509.741 90.1915 598.907 200.497 598.759C200.349 488.627 110.813 399.472 0.507324 399.62Z" fill="#F9F9F9"/>
<path d="M399.662 199.699L599.429 199.435L599.165 0C599.271 110.196 509.967 199.551 399.662 199.699Z" fill="white"/>
<path d="M599.123 0.0211639L399.355 0.295529L399.62 199.731C399.514 89.5665 488.817 0.168894 599.123 0.0211639Z" fill="#E0F5F0"/>
<path d="M399.662 199.699C509.967 199.551 599.271 110.154 599.123 0.0211639C488.817 0.168894 399.514 89.5664 399.662 199.699Z" fill="#F9F9F9"/>
<path d="M399.694 199.678L399.419 0.243088L199.651 0.506891C309.999 0.380265 399.546 89.5457 399.694 199.678Z" fill="#E0F5F0"/>
<path d="M199.694 0.528488L199.969 199.964L399.736 199.7C289.388 199.826 199.842 110.661 199.694 0.528488Z" fill="#F9F9F9"/>
<path d="M399.694 199.679C399.546 89.5465 309.999 0.380942 199.694 0.528671C199.842 110.661 289.388 199.827 399.694 199.679Z" fill="white"/>
<path d="M399.958 399.081L200.19 399.345L200.455 598.78C200.349 488.627 289.684 399.229 399.958 399.081Z" fill="#F9F9F9"/>
<path d="M200.497 598.759L400.265 598.495L400 399.06C400.106 509.214 310.824 598.612 200.497 598.759Z" fill="#E0F5F0"/>
<path d="M399.958 399.081C289.652 399.229 200.349 488.627 200.497 598.759C310.802 598.611 400.106 509.214 399.958 399.081Z" fill="white"/>
<path d="M199.937 199.942L0.264236 200.205L0.528479 399.567C0.380503 289.455 89.663 200.089 199.937 199.942Z" fill="white"/>
<path d="M199.989 199.942C89.7156 200.089 0.433339 289.455 0.581315 399.567L200.349 399.292L199.989 199.942Z" fill="#F9F9F9"/>
<path d="M200.085 271.717C183.301 271.739 166.686 275.062 151.189 281.495C135.691 287.928 121.615 297.345 109.764 309.209C97.9119 321.073 88.5172 335.152 82.1159 350.641C75.7146 366.13 72.4319 382.727 72.4555 399.482V399.482L200.286 399.303L200.085 271.717Z" fill="#E0F5F0"/>
<path d="M399.662 199.678L199.989 199.942L200.254 399.292C200.106 289.191 289.388 199.825 399.662 199.678Z" fill="white"/>
<path d="M399.715 199.678C289.441 199.825 200.159 289.191 200.306 399.292L400.074 399.028L399.715 199.678Z" fill="#E0F5F0"/>
<path d="M399.81 271.453C383.026 271.475 366.412 274.798 350.914 281.231C335.417 287.664 321.34 297.081 309.489 308.945C297.637 320.81 288.242 334.888 281.841 350.377C275.44 365.867 272.157 382.463 272.181 399.219L400.011 399.05L399.81 271.453Z" fill="#F9F9F9"/>
<path d="M599.651 398.765L599.387 199.404L399.715 199.678C509.988 199.53 599.503 288.664 599.651 398.765Z" fill="#E0F5F0"/>
<path d="M599.651 398.817C599.503 288.717 509.988 199.583 399.715 199.731L399.979 399.166L599.651 398.817Z" fill="#F9F9F9"/>
<path d="M527.766 398.912C527.744 382.156 524.416 365.568 517.973 350.096C511.529 334.624 502.096 320.57 490.213 308.738C478.329 296.905 464.227 287.525 448.712 281.133C433.197 274.741 416.572 271.463 399.788 271.485L399.958 399.166L527.766 398.912Z" fill="white"/>
</svg>
