<svg width="600" height="600" viewBox="0 0 600 600" fill="none" xmlns="http://www.w3.org/2000/svg">
<rect width="600" height="600" fill="white"/>
<path d="M199.645 0.611084L0 0.87485L0.264206 200.208C0.116251 90.1334 89.3862 0.769344 199.645 0.611084Z" fill="#E8F4F8"/>
<path d="M199.697 0.611084C89.4391 0.758793 0.169123 90.1229 0.317078 200.208L200.057 199.945L199.697 0.611084Z" fill="#F9F9F9"/>
<path d="M199.793 72.3555C183.011 72.379 166.398 75.7023 150.903 82.1355C135.407 88.5686 121.333 97.9858 109.483 109.849C97.6333 121.713 88.2401 135.79 81.8398 151.278C75.4395 166.765 72.1574 183.359 72.181 200.113V200.113L199.993 199.945L199.793 72.3555Z" fill="white"/>
<path d="M599.864 598.158L599.6 398.835L399.955 399.099C510.214 398.951 599.716 488.051 599.864 598.158Z" fill="#E8F4F8"/>
<path d="M599.864 598.211V598.158C599.716 488.072 510.214 398.951 399.955 399.099H399.902L400.166 598.506L599.864 598.211Z" fill="white"/>
<path d="M527.989 598.306C527.971 581.55 524.647 564.962 518.207 549.489C511.767 534.016 502.337 519.961 490.455 508.127C478.574 496.292 464.474 486.911 448.96 480.517C433.446 474.124 416.823 470.844 400.039 470.864V470.864L400.209 598.527L527.989 598.306Z" fill="#F9F9F9"/>
<path d="M599.092 0.0942383L399.352 0.358005L399.617 199.765C399.511 89.6271 488.813 0.241947 599.092 0.0942383Z" fill="#F9F9F9"/>
<path d="M399.659 199.744L599.399 199.47L599.135 0.062439C599.24 110.211 509.949 199.596 399.659 199.744Z" fill="white"/>
<path d="M599.092 0.0942383C488.802 0.241947 399.511 89.6271 399.659 199.744C509.949 199.597 599.24 110.211 599.092 0.0942383Z" fill="#E8F4F8"/>
<path d="M399.923 399.12L399.659 199.712L199.919 199.976C310.21 199.86 399.775 289.003 399.923 399.12Z" fill="white"/>
<path d="M199.962 200.018L200.226 399.426L399.966 399.162C289.633 399.268 200.11 310.125 199.962 200.018Z" fill="#F9F9F9"/>
<path d="M399.923 399.12C399.775 289.003 310.252 199.86 199.962 200.008C200.11 310.125 289.633 399.267 399.923 399.12Z" fill="#E8F4F8"/>
<path d="M399.659 199.692L399.395 0.358398L199.75 0.622165C310.009 0.474456 399.511 89.6063 399.659 199.692Z" fill="white"/>
<path d="M399.659 199.744C399.511 89.6585 310.009 0.526607 199.75 0.674317L200.015 200.082L399.659 199.744Z" fill="#E8F4F8"/>
<path d="M327.784 199.839C327.772 183.079 324.452 166.486 318.013 151.007C311.575 135.528 302.145 121.468 290.262 109.629C278.379 97.7902 264.275 88.4048 248.758 82.0092C233.24 75.6137 216.612 72.3333 199.824 72.3555V72.3555L199.993 200.018L327.784 199.839Z" fill="#F9F9F9"/>
<path d="M0.560089 399.711L0.824295 599.034L200.469 598.77C90.1577 598.918 0.655203 509.796 0.560089 399.711Z" fill="white"/>
<path d="M0.560089 399.658C0.708044 509.743 90.2105 598.865 200.469 598.717H200.522L200.257 399.31L0.560089 399.658Z" fill="#F9F9F9"/>
<path d="M72.4242 399.563C72.4607 433.39 85.952 465.817 109.932 489.716C133.912 513.614 166.417 527.027 200.3 527.004L200.131 399.341L72.4242 399.563Z" fill="#E8F4F8"/>
<path d="M599.621 398.803L599.452 271.193L599.357 199.428H599.304L399.659 199.691L599.621 398.803Z" fill="#E8F4F8"/>
<path d="M399.659 199.691L399.828 327.302L399.923 399.067H399.976L599.621 398.803L399.659 199.691Z" fill="#F9F9F9"/>
<path d="M400.177 598.453L400.008 470.833L399.913 399.067H399.86L200.215 399.341L400.177 598.453Z" fill="#E8F4F8"/>
<path d="M200.215 399.341L200.384 526.952L200.479 598.717H200.532L400.177 598.453L200.215 399.341Z" fill="white"/>
<path d="M199.909 199.955L72.0966 200.124L0.21138 200.219V200.272L0.475586 399.605L199.909 199.955Z" fill="#E8F4F8"/>
<path d="M0.475571 399.605L128.298 399.436L200.173 399.341V399.289L199.909 199.955L0.475571 399.605Z" fill="white"/>
</svg>
